<svg width="56" height="56" viewBox="0 0 56 56" fill="none" xmlns="http://www.w3.org/2000/svg">
<path d="M50.1425 27.6647C50.1425 15.2513 40.0783 5.18713 27.6649 5.18713C15.2514 5.18713 5.18726 15.2513 5.18726 27.6647C5.18726 40.0782 15.2514 50.1423 27.6649 50.1423C40.0783 50.1423 50.1425 40.0782 50.1425 27.6647Z" stroke="#1946B9" stroke-width="4" stroke-miterlimit="10"/>
<path d="M48.1507 18.6024C46.4152 18.6132 46.5859 21.8152 44.4235 20.3044C43.6206 19.7446 43.1267 18.9309 42.1185 18.6834C41.2378 18.4673 40.3354 18.6921 39.4655 18.8423C38.4767 19.013 37.3042 19.0898 36.5542 19.8386C35.8291 20.5594 35.4455 21.5266 34.6739 22.2518C33.1815 23.6566 32.5515 25.19 33.5176 27.1763C34.4469 29.0858 36.391 30.1222 38.4886 29.986C40.5494 29.8488 42.6902 28.6535 42.6307 31.648C42.6091 32.7071 42.8306 33.4419 43.1559 34.4264C43.4574 35.3342 43.4369 36.2138 43.5061 37.1507C43.6336 38.9014 43.9556 40.8639 44.8245 42.4103L46.4454 40.1236C46.6454 39.8405 47.0636 39.4439 47.163 39.11C47.3391 38.5188 46.9922 37.503 46.9523 36.8406C46.9123 36.1781 46.9317 35.5071 46.8301 34.8446C46.6875 33.9163 46.1385 33.0464 46.0629 32.1289C45.9235 30.4204 46.2358 29.0566 44.9196 27.628C43.6487 26.2502 41.7857 25.9195 40.0058 26.1994C39.1089 26.3399 35.4984 26.9169 36.9476 24.8669C37.2339 24.4639 37.7343 24.1332 38.0563 23.7495C38.3362 23.4156 38.5794 22.8018 38.9079 22.5414C39.2364 22.2809 40.745 21.9816 41.1772 22.1145C41.6095 22.2474 42.0601 22.871 42.4351 23.1476C43.128 23.6695 43.9365 24.0164 44.792 24.1591C46.2682 24.3752 49.3546 23.5172 49.3308 21.6239C49.3265 20.7161 48.4836 19.4518 48.1507 18.6024ZM31.0634 34.1811C30.4874 31.7561 27.1925 30.9456 25.4159 29.6305C24.3947 28.874 23.4859 27.7058 22.1448 27.6107C21.5266 27.5664 21.009 27.7004 20.3963 27.5416C19.8343 27.3967 19.3934 27.0942 18.7947 27.173C17.6763 27.32 16.9706 28.5152 15.7689 28.3531C14.6288 28.1997 13.4541 26.8661 13.1948 25.7801C12.8619 24.3839 13.9664 23.9311 15.1497 23.8068C15.6435 23.7549 16.1979 23.6987 16.6723 23.8792C17.2969 24.1116 17.592 24.7232 18.1528 25.0323C19.2043 25.6083 19.4172 24.6875 19.2562 23.7539C19.0152 22.3555 18.7342 21.7849 19.9813 20.8231C20.8458 20.1596 21.585 19.6798 21.4467 18.4878C21.3645 17.7876 20.9809 17.4709 21.3386 16.7739C21.6098 16.2433 22.3544 15.7646 22.8396 15.448C24.0921 14.631 28.2051 14.6915 26.5247 12.4048C26.0308 11.7337 25.1198 10.5342 24.2553 10.37C23.1746 10.1657 22.6948 11.3717 21.9416 11.9034C21.1635 12.4535 19.6485 13.0781 18.8693 12.2276C17.8211 11.0832 19.5642 10.7071 19.95 9.90852C20.3357 9.10991 19.0563 7.60024 18.3711 7.21769L15.1497 10.8303C15.0571 11.4353 15.0894 12.0529 15.2444 12.645C15.3993 13.2371 15.6738 13.7912 16.051 14.2733C16.6918 15.0978 17.7119 15.3626 17.7584 16.4886C17.8038 17.5693 17.6352 18.1226 16.9284 18.8823C16.6226 19.2065 16.4065 19.6668 16.0953 19.9705C15.7138 20.3412 15.8554 20.2277 15.2599 20.3293C14.1404 20.5184 13.1872 20.8102 12.1055 21.1084C10.303 21.6066 10.1365 18.6618 9.31523 17.5066L6.6136 19.6884C6.58442 20.0461 7.05667 20.7043 7.18527 21.0933C7.92335 23.3162 9.41249 25.0355 10.3743 27.1622C11.3868 29.4143 14.1058 28.7897 15.3064 30.763C16.3719 32.5136 15.234 34.7301 16.0315 36.5629C16.6107 37.8931 17.9767 38.1838 18.919 39.1564C19.8819 40.1387 19.8613 41.4831 20.0083 42.7615C20.1741 44.2652 20.4431 45.7557 20.8134 47.2224C20.9442 47.7293 21.0641 48.3993 21.411 48.8175C21.6487 49.1049 22.4646 49.3524 22.135 49.4475C22.5954 49.5231 23.4156 49.9532 23.7992 49.6377C24.305 49.2227 24.1699 47.9454 24.2574 47.3683C24.52 45.6501 25.3802 43.9697 26.5409 42.6837C27.6874 41.415 29.2587 40.5559 30.227 39.1175C31.1704 37.7148 31.4546 35.8226 31.0634 34.1811ZM27.4551 37.0254C26.8067 38.1828 25.363 38.9576 24.4347 39.8772C24.1829 40.1269 23.6469 40.9914 23.3313 40.8044C23.1055 40.6704 23.0287 39.5487 22.9455 39.2915C22.5163 37.9964 21.6967 36.8658 20.5994 36.0549C20.2612 35.7988 19.4226 35.466 19.2292 35.1148C19.013 34.7333 19.2075 33.8331 19.2151 33.4181C19.227 32.813 18.9514 31.8069 19.1006 31.2568C19.2735 30.6225 18.9406 31.005 19.508 30.8797C19.8073 30.8127 21.0436 31.0299 21.4164 31.1077C22.0086 31.2309 22.335 31.5994 22.8018 31.9722C24.0294 32.9567 25.3813 33.7186 26.757 34.4729C27.8225 35.0629 28.1359 35.8096 27.4551 37.0254ZM19.9337 7.25011C20.446 7.75045 20.9279 8.34265 21.692 8.39236C22.4149 8.44099 23.0968 8.04979 23.7279 8.54149C24.4282 9.08182 24.9329 9.76587 25.8622 9.93445C26.7613 10.0976 27.7134 9.57243 27.936 8.6528C28.1521 7.77639 27.6864 6.82325 27.6583 5.9436C27.6583 5.82148 27.7242 5.27899 27.6399 5.18714C27.5772 5.11798 27.0542 5.19578 26.9742 5.19794C26.3885 5.21524 25.8042 5.25558 25.2214 5.31898C23.0966 5.54896 21.0158 6.08209 19.0422 6.90214C19.3048 7.08369 19.6344 7.15609 19.9337 7.25011ZM38.5145 13.3212C39.432 13.3212 40.3635 12.9106 40.0674 11.8494C39.8189 10.96 39.3952 9.99497 38.3643 10.4748C37.7083 10.7795 36.779 11.5554 36.7023 12.3249C36.6147 13.198 37.9029 13.3212 38.5145 13.3212ZM37.7818 17.9648C38.7188 18.5257 40.1085 18.262 40.8152 17.4612C41.3674 16.8344 41.6927 15.7462 42.6858 15.7473C43.1231 15.7464 43.5431 15.9176 43.8551 16.2239C44.2658 16.6486 44.1847 17.0473 44.2722 17.579C44.4678 18.7731 45.7484 17.6471 46.0823 17.1846C46.2985 16.8831 46.5913 16.4357 46.493 16.0434C46.4022 15.6771 45.9743 15.2869 45.7841 14.9509C45.2286 13.9783 44.7715 12.8468 43.9394 12.0612C43.1386 11.3047 42.1542 11.3923 41.3945 12.1779C40.772 12.8263 40.049 13.3396 39.6233 14.1285C39.3228 14.6828 38.9846 14.9476 38.3762 15.0913C38.0412 15.1702 37.6586 15.1994 37.3777 15.4242C36.5953 16.0401 37.0405 17.5196 37.7818 17.9648Z" fill="#1946B9"/>
</svg>
