<svg width="288" height="26" viewBox="0 0 288 26" fill="none" xmlns="http://www.w3.org/2000/svg">
<path d="M16.6272 25H0.5632L4.6272 1.96H20.6912L19.7952 6.952H9.4912L8.7552 11.272H17.2672L16.3712 16.264H7.8592L7.2192 20.008H17.5232L16.6272 25ZM26.3612 20.072C26.3612 20.6267 26.6385 20.904 27.1932 20.904C27.7692 20.904 28.2492 20.7973 28.6332 20.584L28.4732 24.2C27.4492 25.032 26.2972 25.448 25.0172 25.448C23.0759 25.448 21.8172 25 21.2412 24.104C20.8785 23.528 20.6972 22.8987 20.6972 22.216C20.6972 21.5333 20.7399 20.936 20.8252 20.424L24.3132 0.711998H29.7532L26.3932 19.688C26.3719 19.816 26.3612 19.944 26.3612 20.072ZM48.2995 1.96L51.7235 13L59.0835 1.96H65.1315L61.0675 25H55.2755L57.5795 12.008L52.6515 19.752H48.4595L46.2835 12.008L43.9795 25H38.2195L42.2835 1.96H48.2995ZM72.1857 25.448C67.7484 25.448 65.5297 23.912 65.5297 20.84C65.5297 20.4133 65.5724 19.9547 65.6577 19.464L66.3297 15.496C66.6924 13.448 67.631 11.88 69.1457 10.792C70.6817 9.68267 72.7084 9.128 75.2257 9.128C79.5137 9.128 81.6577 10.7493 81.6577 13.992C81.6577 14.4613 81.615 14.9733 81.5297 15.528L81.1457 17.8H71.3857L71.2577 18.536C71.215 18.792 71.1937 19.0267 71.1937 19.24C71.1937 20.4133 71.887 21 73.2737 21C73.7857 21 74.223 20.84 74.5857 20.52C74.9484 20.2 75.1617 19.8267 75.2257 19.4L80.5377 19.464C79.8337 23.4533 77.0497 25.448 72.1857 25.448ZM76.0257 15.848C76.111 15.4853 76.1537 15.1547 76.1537 14.856C76.1537 14.536 76.015 14.216 75.7377 13.896C75.4604 13.576 75.0124 13.416 74.3937 13.416C73.7964 13.416 73.2417 13.6187 72.7297 14.024C72.239 14.4293 71.8977 15.0373 71.7057 15.848H76.0257ZM98.386 20.072C98.386 20.6267 98.6633 20.904 99.218 20.904C99.794 20.904 100.274 20.7973 100.658 20.584L100.498 24.2C99.474 25.032 98.322 25.448 97.042 25.448C94.6953 25.448 93.394 24.5947 93.138 22.888C92.0713 24.5947 90.5033 25.448 88.434 25.448C84.9353 25.448 83.186 23.944 83.186 20.936C83.186 20.424 83.2393 19.8587 83.346 19.24L84.018 15.496C84.3593 13.576 85.138 12.0507 86.354 10.92C87.5913 9.768 89.298 9.192 91.474 9.192C92.818 9.192 93.8846 9.48 94.674 10.056L96.306 0.711998H101.778L98.418 19.688C98.3966 19.816 98.386 19.944 98.386 20.072ZM88.914 18.536C88.8713 18.728 88.85 18.9947 88.85 19.336C88.85 19.6773 89.01 20.0187 89.33 20.36C89.65 20.68 90.1833 20.84 90.93 20.84C91.698 20.84 92.3593 20.5413 92.914 19.944L93.874 14.568C93.6393 14.0347 93.0846 13.768 92.21 13.768C90.5673 13.768 89.6073 14.5573 89.33 16.136L88.914 18.536ZM110.005 20.904C110.496 20.904 110.933 20.7973 111.317 20.584L111.157 24.2C110.154 25.032 109.013 25.448 107.733 25.448C105.792 25.448 104.533 25 103.957 24.104C103.573 23.5067 103.381 22.8773 103.381 22.216C103.381 21.5333 103.424 20.936 103.509 20.424L105.429 9.608H110.869L109.077 19.688C109.056 19.816 109.045 19.9333 109.045 20.04C109.045 20.616 109.365 20.904 110.005 20.904ZM106.069 4.392C106.069 3.02667 106.368 2.03467 106.965 1.416C107.584 0.775999 108.533 0.455999 109.813 0.455999C111.605 0.455999 112.501 1.24533 112.501 2.824C112.501 4.168 112.192 5.14933 111.573 5.768C110.976 6.38667 110.026 6.696 108.725 6.696C106.954 6.696 106.069 5.928 106.069 4.392ZM122.852 9.16C125.156 9.16 126.895 9.66133 128.068 10.664C128.986 11.4533 129.444 12.552 129.444 13.96C129.444 14.4293 129.391 14.9413 129.284 15.496L128.612 19.24C128.207 21.5013 127.258 23.1013 125.764 24.04C124.292 24.9787 122.319 25.448 119.844 25.448C117.37 25.448 115.556 24.9787 114.404 24.04C113.551 23.336 113.124 22.28 113.124 20.872C113.124 20.3813 113.178 19.8373 113.284 19.24L113.956 15.496C114.703 11.272 117.668 9.16 122.852 9.16ZM123.716 16.136C123.759 15.9227 123.78 15.656 123.78 15.336C123.78 14.9947 123.642 14.6213 123.364 14.216C123.087 13.8107 122.596 13.608 121.892 13.608C121.21 13.608 120.634 13.8427 120.164 14.312C119.695 14.76 119.396 15.368 119.268 16.136L118.852 18.536C118.81 18.7493 118.788 19.0267 118.788 19.368C118.788 19.688 118.927 20.04 119.204 20.424C119.482 20.808 119.962 21 120.644 21C121.348 21 121.935 20.7653 122.404 20.296C122.874 19.8053 123.172 19.2187 123.3 18.536L123.716 16.136ZM150.33 25L150.522 19.976H145.178L143.61 25H137.498L145.722 1.96H156.282L156.41 25H150.33ZM149.018 7.56L146.49 15.688H150.682L151.034 7.56H149.018ZM186.03 20.904C186.521 20.904 186.958 20.7973 187.342 20.584L187.182 24.2C186.18 25.032 185.038 25.448 183.758 25.448C180.857 25.448 179.406 24.232 179.406 21.8C179.406 21.3733 179.449 20.9147 179.534 20.424L180.206 16.488C180.27 16.104 180.302 15.72 180.302 15.336C180.302 14.312 179.737 13.8 178.606 13.8C177.497 13.8 176.622 14.2373 175.982 15.112L174.254 25H168.814L170.318 16.488C170.382 16.104 170.414 15.72 170.414 15.336C170.414 14.312 169.838 13.8 168.686 13.8C167.769 13.8 166.98 14.152 166.318 14.856L164.526 25H159.086L161.806 9.608H166.862L166.51 11.528C167.79 9.94933 169.412 9.16 171.374 9.16C174.148 9.16 175.726 10.0773 176.11 11.912C177.39 10.0773 179.097 9.16 181.23 9.16C183.385 9.16 184.782 9.64 185.422 10.6C185.849 11.2613 186.062 11.9867 186.062 12.776C186.062 13.5653 186.009 14.28 185.902 14.92L185.102 19.688C185.081 19.816 185.07 19.9333 185.07 20.04C185.07 20.616 185.39 20.904 186.03 20.904ZM200.198 9.16C202.31 9.16 203.792 9.74667 204.646 10.92C205.286 11.752 205.606 12.7653 205.606 13.96C205.606 14.4507 205.552 14.9627 205.446 15.496L204.806 19.08C204.443 21.128 203.494 22.7067 201.958 23.816C200.443 24.904 198.523 25.448 196.198 25.448C193.894 25.448 192.123 24.9893 190.886 24.072C189.904 23.3467 189.414 22.3333 189.414 21.032C189.414 20.6907 189.446 20.3387 189.51 19.976L192.902 0.711998H198.342L196.71 10.024C197.606 9.448 198.768 9.16 200.198 9.16ZM199.91 15.976C199.931 15.8053 199.942 15.5707 199.942 15.272C199.942 14.952 199.803 14.6213 199.526 14.28C199.27 13.9173 198.694 13.736 197.798 13.736C196.923 13.736 196.294 14.0027 195.91 14.536L194.982 19.88C195.238 20.52 195.771 20.84 196.582 20.84C198.224 20.84 199.195 20.0187 199.494 18.376L199.91 15.976ZM214.224 20.904C214.714 20.904 215.152 20.7973 215.536 20.584L215.376 24.2C214.373 25.032 213.232 25.448 211.952 25.448C210.01 25.448 208.752 25 208.176 24.104C207.792 23.5067 207.6 22.8773 207.6 22.216C207.6 21.5333 207.642 20.936 207.728 20.424L209.648 9.608H215.088L213.296 19.688C213.274 19.816 213.264 19.9333 213.264 20.04C213.264 20.616 213.584 20.904 214.224 20.904ZM210.288 4.392C210.288 3.02667 210.586 2.03467 211.184 1.416C211.802 0.775999 212.752 0.455999 214.032 0.455999C215.824 0.455999 216.72 1.24533 216.72 2.824C216.72 4.168 216.41 5.14933 215.792 5.768C215.194 6.38667 214.245 6.696 212.944 6.696C211.173 6.696 210.288 5.928 210.288 4.392ZM223.967 25.448C219.53 25.448 217.311 23.912 217.311 20.84C217.311 20.4133 217.354 19.9547 217.439 19.464L218.111 15.496C218.474 13.448 219.412 11.88 220.927 10.792C222.463 9.68267 224.49 9.128 227.007 9.128C231.295 9.128 233.439 10.7493 233.439 13.992C233.439 14.4613 233.396 14.9733 233.311 15.528L232.927 17.8H223.167L223.039 18.536C222.996 18.792 222.975 19.0267 222.975 19.24C222.975 20.4133 223.668 21 225.055 21C225.567 21 226.004 20.84 226.367 20.52C226.73 20.2 226.943 19.8267 227.007 19.4L232.319 19.464C231.615 23.4533 228.831 25.448 223.967 25.448ZM227.807 15.848C227.892 15.4853 227.935 15.1547 227.935 14.856C227.935 14.536 227.796 14.216 227.519 13.896C227.242 13.576 226.794 13.416 226.175 13.416C225.578 13.416 225.023 13.6187 224.511 14.024C224.02 14.4293 223.679 15.0373 223.487 15.848H227.807ZM245.463 15.176C245.463 14.2587 245.015 13.8 244.119 13.8C243.245 13.8 242.519 14.1307 241.943 14.792L240.151 25H234.711L237.431 9.608H242.487L242.135 11.496C243.394 9.93867 244.983 9.16 246.903 9.16C248.823 9.16 250.071 9.62933 250.647 10.568C251.01 11.1653 251.191 11.848 251.191 12.616C251.191 13.384 251.138 14.0987 251.031 14.76L250.167 19.688C250.146 19.816 250.135 19.9333 250.135 20.04C250.135 20.616 250.455 20.904 251.095 20.904C251.586 20.904 252.023 20.7973 252.407 20.584L252.247 24.2C251.245 25.032 250.103 25.448 248.823 25.448C245.922 25.448 244.471 24.232 244.471 21.8C244.471 21.3733 244.514 20.9147 244.599 20.424L245.367 16.168C245.431 15.784 245.463 15.4533 245.463 15.176ZM261.132 25.448C258.658 25.448 256.876 24.8933 255.788 23.784C254.978 22.9733 254.572 21.8853 254.572 20.52C254.572 20.072 254.615 19.592 254.7 19.08L256.876 6.696L262.732 4.264L261.804 9.608H270.636L269.836 14.12H261.004L260.364 17.736C260.279 18.1413 260.236 18.504 260.236 18.824C260.236 20.168 260.876 20.84 262.156 20.84C262.839 20.84 263.404 20.552 263.852 19.976C264.322 19.4 264.642 18.632 264.812 17.672H270.124C269.228 22.856 266.231 25.448 261.132 25.448ZM278.311 25.448C273.873 25.448 271.655 23.912 271.655 20.84C271.655 20.4133 271.697 19.9547 271.783 19.464L272.455 15.496C272.817 13.448 273.756 11.88 275.271 10.792C276.807 9.68267 278.833 9.128 281.351 9.128C285.639 9.128 287.783 10.7493 287.783 13.992C287.783 14.4613 287.74 14.9733 287.655 15.528L287.271 17.8H277.511L277.383 18.536C277.34 18.792 277.319 19.0267 277.319 19.24C277.319 20.4133 278.012 21 279.399 21C279.911 21 280.348 20.84 280.711 20.52C281.073 20.2 281.287 19.8267 281.351 19.4L286.663 19.464C285.959 23.4533 283.175 25.448 278.311 25.448ZM282.151 15.848C282.236 15.4853 282.279 15.1547 282.279 14.856C282.279 14.536 282.14 14.216 281.863 13.896C281.585 13.576 281.137 13.416 280.519 13.416C279.921 13.416 279.367 13.6187 278.855 14.024C278.364 14.4293 278.023 15.0373 277.831 15.848H282.151Z" fill="#1B2430"/>
</svg>
