<svg width="353" height="49" viewBox="0 0 353 49" fill="none" xmlns="http://www.w3.org/2000/svg">
<path d="M80.6272 40H64.5632L68.6272 16.96H84.6912L83.7952 21.952H73.4912L72.7552 26.272H81.2672L80.3712 31.264H71.8592L71.2192 35.008H81.5232L80.6272 40ZM90.3612 35.072C90.3612 35.6267 90.6385 35.904 91.1932 35.904C91.7692 35.904 92.2492 35.7973 92.6332 35.584L92.4732 39.2C91.4492 40.032 90.2972 40.448 89.0172 40.448C87.0759 40.448 85.8172 40 85.2412 39.104C84.8785 38.528 84.6972 37.8987 84.6972 37.216C84.6972 36.5333 84.7399 35.936 84.8252 35.424L88.3132 15.712H93.7532L90.3932 34.688C90.3719 34.816 90.3612 34.944 90.3612 35.072ZM112.299 16.96L115.723 28L123.083 16.96H129.131L125.067 40H119.275L121.579 27.008L116.651 34.752H112.459L110.283 27.008L107.979 40H102.219L106.283 16.96H112.299ZM136.186 40.448C131.748 40.448 129.53 38.912 129.53 35.84C129.53 35.4133 129.572 34.9547 129.658 34.464L130.33 30.496C130.692 28.448 131.631 26.88 133.146 25.792C134.682 24.6827 136.708 24.128 139.226 24.128C143.514 24.128 145.658 25.7493 145.658 28.992C145.658 29.4613 145.615 29.9733 145.53 30.528L145.146 32.8H135.386L135.258 33.536C135.215 33.792 135.194 34.0267 135.194 34.24C135.194 35.4133 135.887 36 137.274 36C137.786 36 138.223 35.84 138.586 35.52C138.948 35.2 139.162 34.8267 139.226 34.4L144.538 34.464C143.834 38.4533 141.05 40.448 136.186 40.448ZM140.026 30.848C140.111 30.4853 140.154 30.1547 140.154 29.856C140.154 29.536 140.015 29.216 139.738 28.896C139.46 28.576 139.012 28.416 138.394 28.416C137.796 28.416 137.242 28.6187 136.73 29.024C136.239 29.4293 135.898 30.0373 135.706 30.848H140.026ZM162.386 35.072C162.386 35.6267 162.663 35.904 163.218 35.904C163.794 35.904 164.274 35.7973 164.658 35.584L164.498 39.2C163.474 40.032 162.322 40.448 161.042 40.448C158.695 40.448 157.394 39.5947 157.138 37.888C156.071 39.5947 154.503 40.448 152.434 40.448C148.935 40.448 147.186 38.944 147.186 35.936C147.186 35.424 147.239 34.8587 147.346 34.24L148.018 30.496C148.359 28.576 149.138 27.0507 150.354 25.92C151.591 24.768 153.298 24.192 155.474 24.192C156.818 24.192 157.885 24.48 158.674 25.056L160.306 15.712H165.778L162.418 34.688C162.397 34.816 162.386 34.944 162.386 35.072ZM152.914 33.536C152.871 33.728 152.85 33.9947 152.85 34.336C152.85 34.6773 153.01 35.0187 153.33 35.36C153.65 35.68 154.183 35.84 154.93 35.84C155.698 35.84 156.359 35.5413 156.914 34.944L157.874 29.568C157.639 29.0347 157.085 28.768 156.21 28.768C154.567 28.768 153.607 29.5573 153.33 31.136L152.914 33.536ZM174.005 35.904C174.496 35.904 174.933 35.7973 175.317 35.584L175.157 39.2C174.154 40.032 173.013 40.448 171.733 40.448C169.792 40.448 168.533 40 167.957 39.104C167.573 38.5067 167.381 37.8773 167.381 37.216C167.381 36.5333 167.424 35.936 167.509 35.424L169.429 24.608H174.869L173.077 34.688C173.056 34.816 173.045 34.9333 173.045 35.04C173.045 35.616 173.365 35.904 174.005 35.904ZM170.069 19.392C170.069 18.0267 170.368 17.0347 170.965 16.416C171.584 15.776 172.533 15.456 173.813 15.456C175.605 15.456 176.501 16.2453 176.501 17.824C176.501 19.168 176.192 20.1493 175.573 20.768C174.976 21.3867 174.026 21.696 172.725 21.696C170.954 21.696 170.069 20.928 170.069 19.392ZM186.852 24.16C189.156 24.16 190.895 24.6613 192.068 25.664C192.986 26.4533 193.444 27.552 193.444 28.96C193.444 29.4293 193.391 29.9413 193.284 30.496L192.612 34.24C192.207 36.5013 191.258 38.1013 189.764 39.04C188.292 39.9787 186.319 40.448 183.844 40.448C181.37 40.448 179.556 39.9787 178.404 39.04C177.551 38.336 177.124 37.28 177.124 35.872C177.124 35.3813 177.178 34.8373 177.284 34.24L177.956 30.496C178.703 26.272 181.668 24.16 186.852 24.16ZM187.716 31.136C187.759 30.9227 187.78 30.656 187.78 30.336C187.78 29.9947 187.642 29.6213 187.364 29.216C187.087 28.8107 186.596 28.608 185.892 28.608C185.21 28.608 184.634 28.8427 184.164 29.312C183.695 29.76 183.396 30.368 183.268 31.136L182.852 33.536C182.81 33.7493 182.788 34.0267 182.788 34.368C182.788 34.688 182.927 35.04 183.204 35.424C183.482 35.808 183.962 36 184.644 36C185.348 36 185.935 35.7653 186.404 35.296C186.874 34.8053 187.172 34.2187 187.3 33.536L187.716 31.136ZM214.33 40L214.522 34.976H209.178L207.61 40H201.498L209.722 16.96H220.282L220.41 40H214.33ZM213.018 22.56L210.49 30.688H214.682L215.034 22.56H213.018ZM250.03 35.904C250.521 35.904 250.958 35.7973 251.342 35.584L251.182 39.2C250.18 40.032 249.038 40.448 247.758 40.448C244.857 40.448 243.406 39.232 243.406 36.8C243.406 36.3733 243.449 35.9147 243.534 35.424L244.206 31.488C244.27 31.104 244.302 30.72 244.302 30.336C244.302 29.312 243.737 28.8 242.606 28.8C241.497 28.8 240.622 29.2373 239.982 30.112L238.254 40H232.814L234.318 31.488C234.382 31.104 234.414 30.72 234.414 30.336C234.414 29.312 233.838 28.8 232.686 28.8C231.769 28.8 230.98 29.152 230.318 29.856L228.526 40H223.086L225.806 24.608H230.862L230.51 26.528C231.79 24.9493 233.412 24.16 235.374 24.16C238.148 24.16 239.726 25.0773 240.11 26.912C241.39 25.0773 243.097 24.16 245.23 24.16C247.385 24.16 248.782 24.64 249.422 25.6C249.849 26.2613 250.062 26.9867 250.062 27.776C250.062 28.5653 250.009 29.28 249.902 29.92L249.102 34.688C249.081 34.816 249.07 34.9333 249.07 35.04C249.07 35.616 249.39 35.904 250.03 35.904ZM264.198 24.16C266.31 24.16 267.792 24.7467 268.646 25.92C269.286 26.752 269.606 27.7653 269.606 28.96C269.606 29.4507 269.552 29.9627 269.446 30.496L268.806 34.08C268.443 36.128 267.494 37.7067 265.958 38.816C264.443 39.904 262.523 40.448 260.198 40.448C257.894 40.448 256.123 39.9893 254.886 39.072C253.904 38.3467 253.414 37.3333 253.414 36.032C253.414 35.6907 253.446 35.3387 253.51 34.976L256.902 15.712H262.342L260.71 25.024C261.606 24.448 262.768 24.16 264.198 24.16ZM263.91 30.976C263.931 30.8053 263.942 30.5707 263.942 30.272C263.942 29.952 263.803 29.6213 263.526 29.28C263.27 28.9173 262.694 28.736 261.798 28.736C260.923 28.736 260.294 29.0027 259.91 29.536L258.982 34.88C259.238 35.52 259.771 35.84 260.582 35.84C262.224 35.84 263.195 35.0187 263.494 33.376L263.91 30.976ZM278.224 35.904C278.714 35.904 279.152 35.7973 279.536 35.584L279.376 39.2C278.373 40.032 277.232 40.448 275.952 40.448C274.01 40.448 272.752 40 272.176 39.104C271.792 38.5067 271.6 37.8773 271.6 37.216C271.6 36.5333 271.642 35.936 271.728 35.424L273.648 24.608H279.088L277.296 34.688C277.274 34.816 277.264 34.9333 277.264 35.04C277.264 35.616 277.584 35.904 278.224 35.904ZM274.288 19.392C274.288 18.0267 274.586 17.0347 275.184 16.416C275.802 15.776 276.752 15.456 278.032 15.456C279.824 15.456 280.72 16.2453 280.72 17.824C280.72 19.168 280.41 20.1493 279.792 20.768C279.194 21.3867 278.245 21.696 276.944 21.696C275.173 21.696 274.288 20.928 274.288 19.392ZM287.967 40.448C283.53 40.448 281.311 38.912 281.311 35.84C281.311 35.4133 281.354 34.9547 281.439 34.464L282.111 30.496C282.474 28.448 283.412 26.88 284.927 25.792C286.463 24.6827 288.49 24.128 291.007 24.128C295.295 24.128 297.439 25.7493 297.439 28.992C297.439 29.4613 297.396 29.9733 297.311 30.528L296.927 32.8H287.167L287.039 33.536C286.996 33.792 286.975 34.0267 286.975 34.24C286.975 35.4133 287.668 36 289.055 36C289.567 36 290.004 35.84 290.367 35.52C290.73 35.2 290.943 34.8267 291.007 34.4L296.319 34.464C295.615 38.4533 292.831 40.448 287.967 40.448ZM291.807 30.848C291.892 30.4853 291.935 30.1547 291.935 29.856C291.935 29.536 291.796 29.216 291.519 28.896C291.242 28.576 290.794 28.416 290.175 28.416C289.578 28.416 289.023 28.6187 288.511 29.024C288.02 29.4293 287.679 30.0373 287.487 30.848H291.807ZM309.463 30.176C309.463 29.2587 309.015 28.8 308.119 28.8C307.245 28.8 306.519 29.1307 305.943 29.792L304.151 40H298.711L301.431 24.608H306.487L306.135 26.496C307.394 24.9387 308.983 24.16 310.903 24.16C312.823 24.16 314.071 24.6293 314.647 25.568C315.01 26.1653 315.191 26.848 315.191 27.616C315.191 28.384 315.138 29.0987 315.031 29.76L314.167 34.688C314.146 34.816 314.135 34.9333 314.135 35.04C314.135 35.616 314.455 35.904 315.095 35.904C315.586 35.904 316.023 35.7973 316.407 35.584L316.247 39.2C315.245 40.032 314.103 40.448 312.823 40.448C309.922 40.448 308.471 39.232 308.471 36.8C308.471 36.3733 308.514 35.9147 308.599 35.424L309.367 31.168C309.431 30.784 309.463 30.4533 309.463 30.176ZM325.132 40.448C322.658 40.448 320.876 39.8933 319.788 38.784C318.978 37.9733 318.572 36.8853 318.572 35.52C318.572 35.072 318.615 34.592 318.7 34.08L320.876 21.696L326.732 19.264L325.804 24.608H334.636L333.836 29.12H325.004L324.364 32.736C324.279 33.1413 324.236 33.504 324.236 33.824C324.236 35.168 324.876 35.84 326.156 35.84C326.839 35.84 327.404 35.552 327.852 34.976C328.322 34.4 328.642 33.632 328.812 32.672H334.124C333.228 37.856 330.231 40.448 325.132 40.448ZM342.311 40.448C337.873 40.448 335.655 38.912 335.655 35.84C335.655 35.4133 335.697 34.9547 335.783 34.464L336.455 30.496C336.817 28.448 337.756 26.88 339.271 25.792C340.807 24.6827 342.833 24.128 345.351 24.128C349.639 24.128 351.783 25.7493 351.783 28.992C351.783 29.4613 351.74 29.9733 351.655 30.528L351.271 32.8H341.511L341.383 33.536C341.34 33.792 341.319 34.0267 341.319 34.24C341.319 35.4133 342.012 36 343.399 36C343.911 36 344.348 35.84 344.711 35.52C345.073 35.2 345.287 34.8267 345.351 34.4L350.663 34.464C349.959 38.4533 347.175 40.448 342.311 40.448ZM346.151 30.848C346.236 30.4853 346.279 30.1547 346.279 29.856C346.279 29.536 346.14 29.216 345.863 28.896C345.585 28.576 345.137 28.416 344.519 28.416C343.921 28.416 343.367 28.6187 342.855 29.024C342.364 29.4293 342.023 30.0373 341.831 30.848H346.151Z" fill="#1B2430"/>
<path fill-rule="evenodd" clip-rule="evenodd" d="M24.4776 0C10.9596 0 0 10.9596 0 24.4776C0 37.9957 10.9596 48.9552 24.4776 48.9552C37.9957 48.9552 48.9552 37.9957 48.9552 24.4776C48.9552 10.9596 37.9957 0 24.4776 0ZM17.9497 5.06261C17.4889 5.21751 17.0354 5.38835 16.5899 5.57448C16.8109 5.99224 16.9129 6.41064 16.7628 6.72138C16.6337 6.98858 16.3527 7.20848 16.0751 7.42569C15.5231 7.85765 14.9847 8.27896 15.6822 9.04046C16.4613 9.89094 17.9764 9.26632 18.7545 8.71627C18.9955 8.54611 19.2086 8.30688 19.4223 8.06691C19.8763 7.55709 20.3333 7.04394 21.0681 7.18282C21.9327 7.34708 22.8437 8.5466 23.3375 9.21769C24.5198 10.8266 22.8342 11.2735 21.2948 11.6816C20.6463 11.8536 20.0237 12.0187 19.6525 12.2608L19.6242 12.2793C19.1388 12.5959 18.4175 13.0664 18.1515 13.5868C17.9115 14.0544 18.0052 14.3508 18.1176 14.7066C18.1728 14.8813 18.2325 15.0702 18.2595 15.3007C18.3895 16.421 17.7444 16.9122 16.9485 17.5181C16.8976 17.5569 16.8461 17.5961 16.7942 17.636C15.6826 18.4933 15.785 19.0398 15.9911 20.1387C16.0162 20.2726 16.0429 20.4148 16.069 20.5667C16.2301 21.5004 16.0172 22.4211 14.9657 21.8451C14.7161 21.7076 14.5192 21.5101 14.3224 21.3128C14.077 21.0668 13.8318 20.821 13.4852 20.6921C13.0108 20.5116 12.4564 20.5678 11.9626 20.6197C10.7792 20.7439 9.67481 21.1967 10.0076 22.5929C10.267 23.679 11.4417 25.0125 12.5818 25.166C13.2554 25.2569 13.7732 24.9212 14.2952 24.5827C14.7044 24.3174 15.1161 24.0505 15.6076 23.9859C16.0175 23.9319 16.3534 24.0567 16.7048 24.1872C16.8667 24.2474 17.0319 24.3087 17.2091 24.3544C17.5886 24.4528 17.9316 24.4389 18.2846 24.4245C18.5016 24.4157 18.7223 24.4067 18.9576 24.4236C19.9499 24.4939 20.7055 25.1517 21.4451 25.7956C21.7051 26.0219 21.9631 26.2465 22.2288 26.4433C22.7609 26.8372 23.4292 27.1858 24.1198 27.5461C25.7351 28.3888 27.4728 29.2953 27.8763 30.994C28.2675 32.6355 27.9832 34.5277 27.0398 35.9304C26.4722 36.7736 25.6973 37.4177 24.9223 38.062C24.3753 38.5168 23.8281 38.9716 23.3537 39.4965C22.1931 40.7825 21.3329 42.4629 21.0703 44.1812C21.0503 44.3129 21.0419 44.481 21.0349 44.667C22.1542 44.8565 23.3044 44.9552 24.4776 44.9552C31.114 44.9552 37.0134 41.7978 40.7554 36.9033C40.5149 35.928 40.3882 34.9146 40.3189 33.9636C40.3042 33.7643 40.2936 33.5676 40.283 33.3727C40.2439 32.6512 40.2062 31.9539 39.9688 31.2393C39.6435 30.2548 39.422 29.5199 39.4436 28.4609C39.4902 26.1113 38.1823 26.3411 36.6213 26.6154C36.1928 26.6907 35.7453 26.7693 35.3014 26.7989C33.2039 26.935 31.2598 25.8987 30.3304 23.9892C29.3643 22.0029 29.9943 20.4695 31.4867 19.0646C31.8884 18.6871 32.185 18.244 32.4793 17.8042C32.7503 17.3992 33.0195 16.997 33.3671 16.6515C34.0102 16.0093 34.9642 15.8614 35.8465 15.7246C35.993 15.7019 36.1375 15.6795 36.2784 15.6551C36.3964 15.6348 36.5151 15.613 36.6342 15.5912C37.3928 15.452 38.1702 15.3095 38.9314 15.4963C39.5955 15.6593 40.0365 16.068 40.4896 16.488C40.7243 16.7056 40.9624 16.9262 41.2364 17.1173C42.4322 17.9527 42.9145 17.347 43.4002 16.6367C43.0991 15.9109 42.7574 15.2061 42.3781 14.5253C41.8766 14.9329 41.2206 15.219 41.0851 14.3919C41.0639 14.2632 41.0526 14.1424 41.0418 14.0271C41.008 13.6657 40.9793 13.3587 40.668 13.0367C40.3559 12.7304 39.9359 12.5592 39.4987 12.5602C38.7806 12.5594 38.4116 13.1282 38.0536 13.6802C37.9165 13.8916 37.781 14.1005 37.6281 14.2741C36.9213 15.0748 35.5316 15.3385 34.5947 14.7777C33.8534 14.3324 33.4081 12.853 34.1905 12.237C34.4111 12.0606 34.6942 12.0047 34.9678 11.9506C35.0427 11.9358 35.117 11.9212 35.1891 11.9042C35.7975 11.7605 36.1357 11.4957 36.4361 10.9413C36.7373 10.3834 37.1871 9.96329 37.6448 9.53576C37.7815 9.40808 37.9189 9.27975 38.0533 9.14688C37.6056 8.75019 37.1405 8.3728 36.6592 8.01601C36.7477 8.22098 36.8193 8.44389 36.8803 8.66223C37.1764 9.72344 36.2449 10.1341 35.3274 10.1341C34.7157 10.1341 33.4276 10.0109 33.5151 9.13772C33.5918 8.3683 34.5212 7.59239 35.1772 7.28764C35.2754 7.24194 35.3681 7.20934 35.4556 7.18855C32.3354 5.20309 28.6415 4.03905 24.6784 4.00096C24.7833 4.4958 24.8657 4.99194 24.7489 5.46566C24.5262 6.38529 23.5742 6.91049 22.6751 6.74731C21.9896 6.62297 21.5351 6.21818 21.0628 5.79747C20.8948 5.64781 20.7245 5.49613 20.5408 5.35435C20.1225 5.02847 19.6819 5.09041 19.2219 5.15509C18.9878 5.188 18.7486 5.22162 18.5048 5.20522C18.3018 5.19201 18.1188 5.14051 17.9497 5.06261ZM44.5572 20.4399C43.5813 20.9054 42.3743 21.0846 41.6049 20.972C40.7493 20.8293 39.9408 20.4823 39.248 19.9605C39.1112 19.8596 38.9644 19.7125 38.812 19.5599C38.5467 19.2942 38.2647 19.0118 37.9901 18.9274C37.5578 18.7944 36.0493 19.0938 35.7207 19.3542C35.526 19.5086 35.3613 19.7871 35.2011 20.0579C35.0911 20.244 34.9832 20.4264 34.8692 20.5624C34.7255 20.7335 34.5464 20.8941 34.3666 21.0553C34.1433 21.2555 33.919 21.4565 33.7604 21.6798C32.3202 23.7172 35.8775 23.1597 36.8018 23.0149L36.8187 23.0122C38.5985 22.7324 40.4616 23.063 41.7324 24.4409C42.7671 25.5639 42.7954 26.6469 42.8279 27.8887C42.8368 28.2266 42.8459 28.5763 42.8757 28.9418C42.9162 29.432 43.0917 29.9086 43.2682 30.3878C43.422 30.8055 43.5766 31.2252 43.643 31.6575C43.6448 31.6689 43.6465 31.6803 43.6482 31.6917C44.493 29.448 44.9552 27.0167 44.9552 24.4776C44.9552 23.0955 44.8183 21.7453 44.5572 20.4399ZM17.5571 43.7561C17.2222 42.3796 16.9764 40.9827 16.8212 39.5743C16.7997 39.3879 16.7819 39.2001 16.764 39.0122C16.6593 37.9115 16.5543 36.8083 15.7319 35.9693C15.3722 35.598 14.9507 35.3261 14.5349 35.0578C13.8614 34.6233 13.2025 34.1982 12.8444 33.3757C12.4713 32.5183 12.5218 31.577 12.5721 30.6387C12.6293 29.5712 12.6863 28.5075 12.1192 27.5758C11.5503 26.6408 10.6405 26.2891 9.73286 25.9382C8.72504 25.5486 7.7199 25.16 7.18714 23.9751C6.78033 23.0755 6.27916 22.2489 5.78039 21.4261C5.37907 20.7642 4.97929 20.1047 4.63146 19.4119C4.21914 21.032 4 22.7292 4 24.4776C4 33.3577 9.65335 40.9182 17.5571 43.7561ZM6.41116 14.8292C6.53976 15.1117 6.65571 15.4332 6.77367 15.7603C7.21144 16.9741 7.67679 18.2644 8.91835 17.9213C9.09709 17.872 9.27232 17.8229 9.44537 17.7744C10.3196 17.5294 11.1382 17.3 12.0728 17.1421C12.3897 17.0881 12.4979 17.0949 12.5872 17.0573C12.6657 17.0242 12.7297 16.9567 12.9081 16.7834C13.0716 16.6239 13.2088 16.4212 13.3466 16.2177C13.4711 16.0337 13.5961 15.8491 13.7413 15.6951C14.4481 14.9354 14.6166 14.3821 14.5713 13.3015C14.5408 12.563 14.0915 12.1949 13.6051 11.7965C13.3498 11.5874 13.0844 11.3699 12.8638 11.0861C12.4867 10.6041 12.2122 10.0499 12.0572 9.45784C11.9588 9.08176 11.9099 8.69541 11.911 8.30852C9.65214 10.0667 7.77135 12.2877 6.41116 14.8292ZM22.3654 35.7473C23.0959 35.1758 23.8484 34.5871 24.268 33.8382C24.9488 32.6225 24.6354 31.8758 23.5699 31.2857C22.1942 30.5314 20.8423 29.7696 19.6147 28.7851C19.5232 28.712 19.4371 28.6392 19.3534 28.5683C19.0097 28.2773 18.7054 28.0196 18.2293 27.9206C17.8564 27.8428 16.6202 27.6256 16.3208 27.6926C16.0276 27.7573 15.9748 27.6864 15.9684 27.6904C15.9624 27.6941 15.997 27.7632 15.9134 28.0697C15.8227 28.4044 15.8892 28.908 15.9525 29.3873C15.9932 29.6957 16.0326 29.9941 16.028 30.231C16.0259 30.3452 16.0096 30.4962 15.9917 30.663C15.9444 31.1022 15.8854 31.6512 16.042 31.9276C16.1682 32.1568 16.5691 32.3781 16.9264 32.5754C17.1167 32.6805 17.2947 32.7788 17.4123 32.8678C18.5096 33.6787 19.3291 34.8092 19.7584 36.1044C19.7847 36.1857 19.8103 36.3533 19.8403 36.5489C19.905 36.972 19.9897 37.5256 20.1442 37.6173C20.3806 37.7574 20.7408 37.3071 21.0125 36.9675C21.1034 36.8539 21.1844 36.7527 21.2475 36.6901C21.5752 36.3655 21.967 36.059 22.3654 35.7473Z" fill="#1946B9"/>
</svg>
